<?xml version="1.0" encoding="iso-8859-1"?>
<!-- Uploaded to: SVG Repo, www.svgrepo.com, Generator: SVG Repo Mixer Tools -->
<!DOCTYPE svg PUBLIC "-//W3C//DTD SVG 1.1//EN" "http://www.w3.org/Graphics/SVG/1.1/DTD/svg11.dtd">
<svg fill="#000000" version="1.1" id="Capa_1" xmlns="http://www.w3.org/2000/svg" xmlns:xlink="http://www.w3.org/1999/xlink" 
	 width="800px" height="800px" viewBox="0 0 382.333 382.333"
	 xml:space="preserve">
<g>
	<path d="M382.322,210.354l-72.351-26.699V105.2l-35.597-14.02l-0.023-39.481l-83.176-30.766l-83.196,30.43l-0.003,39.818
		l-35.597,14.02v78.449L0,210.053V317.89l83.199,31.905l47.447-18.195l60.53,29.8l60.522-29.796l47.436,18.19l83.199-31.905
		L382.322,210.354z M191.176,37.222l58.991,21.549l-58.991,22.621L132.184,58.77L191.176,37.222z M24.207,217.535l58.992-21.549
		l58.991,21.549l-58.992,22.623L24.207,217.535z M191.176,337.993l-33.804-16.643l9.026-3.461l-0.004-107.784l-73.013-26.689
		v-63.917l14.597-5.749v45.375l83.198,31.906l83.199-31.906V113.75l14.597,5.749v63.911l-73.03,26.712l-0.006,107.768l9.036,3.466
		L191.176,337.993z M240.144,217.535l58.992-21.549l58.991,21.549l-58.992,22.623L240.144,217.535z"/>
</g>
</svg>