<?xml version="1.0" encoding="iso-8859-1"?>
<!-- Uploaded to: SVG Repo, www.svgrepo.com, Generator: SVG Repo Mixer Tools -->
<svg height="800px" width="800px" version="1.1" id="Layer_1" xmlns="http://www.w3.org/2000/svg" xmlns:xlink="http://www.w3.org/1999/xlink" 
	 viewBox="0 0 512 512" xml:space="preserve">
<path style="fill:#EAFFFF;" d="M445.217,500.87H44.522c-12.295,0-22.261-9.966-22.261-22.261V66.783
	c0-24.588,19.933-44.522,44.522-44.522h378.435c24.588,0,44.522,19.933,44.522,44.522v389.565
	C489.739,480.936,469.806,500.87,445.217,500.87z"/>
<path style="fill:#D3D5BB;" d="M372.369,125.288c-1.233,3.391-4.434,5.497-7.846,5.497c-0.947,0-1.91-0.163-2.853-0.505
	L109.419,38.662c-0.061,0.076-0.116,0.154-0.179,0.227l-77.913,89.043c-1.651,1.886-3.962,2.851-6.285,2.851
	c-1.951,0-3.91-0.68-5.494-2.065c-3.469-3.036-3.821-8.31-0.786-11.779l77.913-89.043c1.253-1.431,2.888-2.323,4.619-2.674
	c1.998-3.411,6.201-5.022,10.047-3.623l256.036,92.993C371.71,116.165,373.945,120.954,372.369,125.288z M422.957,114.087
	c-4.61,0-8.348,3.738-8.348,8.348V256c0,4.61,3.738,8.348,8.348,8.348c4.61,0,8.348-3.738,8.348-8.348V122.435
	C431.304,117.825,427.567,114.087,422.957,114.087z"/>
<path style="fill:#DDB900;" d="M114.087,8.348v122.435c0,4.61-3.738,8.348-8.348,8.348c-4.61,0-8.348-3.738-8.348-8.348V8.348
	c0-4.61,3.738-8.348,8.348-8.348C110.349,0,114.087,3.738,114.087,8.348z"/>
<path style="fill:#B9BAA6;" d="M44.522,200.348H22.261c-6.147,0-11.13-4.983-11.13-11.13v-66.783h44.522v66.783
	C55.652,195.365,50.669,200.348,44.522,200.348z"/>
<path style="fill:#DDB900;" d="M144.696,467.478H89.043V122.435h55.652V467.478z"/>
<path style="fill:#B9BAA6;" d="M211.478,467.478V512H11.13v-44.522c0-6.147,4.983-11.13,11.13-11.13h178.087
	C206.495,456.348,211.478,461.331,211.478,467.478z"/>
<path style="fill:#CC9600;" d="M442.435,130.783H8.348c-4.61,0-8.348-3.738-8.348-8.348s3.738-8.348,8.348-8.348h434.087
	c4.61,0,8.348,3.738,8.348,8.348S447.045,130.783,442.435,130.783z M445.217,269.913c-4.61,0-8.348,3.738-8.348,8.348
	c0,7.672-6.241,13.913-13.913,13.913s-13.913-6.241-13.913-13.913s6.241-13.913,13.913-13.913c4.61,0,8.348-3.738,8.348-8.348
	s-3.738-8.348-8.348-8.348c-16.878,0-30.609,13.73-30.609,30.609c0,16.878,13.73,30.609,30.609,30.609
	c16.878,0,30.609-13.73,30.609-30.609C453.565,273.651,449.828,269.913,445.217,269.913z M119.795,159.037l-33.391,11.13
	c-4.374,1.458-6.737,6.185-5.28,10.559c1.166,3.498,4.423,5.71,7.918,5.71c0.875,0,1.765-0.139,2.641-0.431l33.391-11.13
	c4.374-1.458,6.737-6.185,5.28-10.559C128.896,159.943,124.167,157.579,119.795,159.037z M119.795,205.785l-33.391,11.13
	c-4.374,1.458-6.737,6.185-5.28,10.559c1.166,3.498,4.423,5.71,7.918,5.71c0.875,0,1.765-0.139,2.641-0.431l33.391-11.13
	c4.374-1.458,6.737-6.185,5.28-10.559C128.896,206.69,124.167,204.326,119.795,205.785z M119.795,252.533l-33.391,11.13
	c-4.374,1.458-6.737,6.185-5.28,10.559c1.166,3.498,4.423,5.71,7.918,5.71c0.875,0,1.765-0.139,2.641-0.431l33.391-11.13
	c4.374-1.458,6.737-6.185,5.28-10.559C128.896,253.438,124.167,251.076,119.795,252.533z M119.795,299.281l-33.391,11.13
	c-4.374,1.458-6.737,6.185-5.28,10.559c1.166,3.498,4.423,5.71,7.918,5.71c0.875,0,1.765-0.139,2.641-0.431l33.391-11.13
	c4.374-1.458,6.737-6.185,5.28-10.559C128.896,300.187,124.167,297.823,119.795,299.281z M119.795,346.029l-33.391,11.13
	c-4.374,1.458-6.737,6.185-5.28,10.559c1.166,3.498,4.423,5.71,7.918,5.71c0.875,0,1.765-0.139,2.641-0.431l33.391-11.13
	c4.374-1.458,6.737-6.185,5.28-10.559C128.896,346.935,124.167,344.569,119.795,346.029z M119.795,392.776l-33.391,11.13
	c-4.374,1.458-6.737,6.185-5.28,10.559c1.166,3.498,4.423,5.71,7.918,5.71c0.875,0,1.765-0.139,2.641-0.431l33.391-11.13
	c4.374-1.458,6.737-6.185,5.28-10.559C128.896,393.681,124.167,391.319,119.795,392.776z"/>
<path style="fill:#E7E8D4;" d="M512,345.043v33.391c0,6.147-4.983,11.13-11.13,11.13h-55.652v55.652h33.391
	c6.147,0,11.13,4.983,11.13,11.13v44.522H278.261v-55.652v-44.522c0-6.147,4.983-11.13,11.13-11.13h77.913v-44.522
	c0-6.147,4.983-11.13,11.13-11.13H500.87C507.017,333.913,512,338.896,512,345.043z"/>
<path style="fill:#D3D5BB;" d="M512,345.043v33.391c0,6.147-4.983,11.13-11.13,11.13h-55.652v55.652H278.261v-44.522
	c0-6.147,4.983-11.13,11.13-11.13h77.913v-44.522c0-6.147,4.983-11.13,11.13-11.13H500.87C507.017,333.913,512,338.896,512,345.043z
	"/>
<path style="fill:#B9BAA6;" d="M512,345.043v33.391c0,6.147-4.983,11.13-11.13,11.13H367.304v-44.522
	c0-6.147,4.983-11.13,11.13-11.13H500.87C507.017,333.913,512,338.896,512,345.043z"/>
<path style="fill:#C5EAD4;" d="M512,22.261L512,22.261c0,12.295-9.966,22.261-22.261,22.261H386.563
	c1.898,3.277,3.002,7.071,3.002,11.13l0,0c0,12.295-9.966,22.261-22.261,22.261H200.348c-12.295,0-22.261-9.966-22.261-22.261l0,0
	c0-12.295,9.966-22.261,22.261-22.261h125.437c-1.898-3.277-3.002-7.071-3.002-11.13l0,0C322.783,9.966,332.749,0,345.043,0h144.696
	C502.034,0,512,9.966,512,22.261z"/>
<path style="fill:#6B6A63;" d="M512,503.652c0,4.61-3.738,8.348-8.348,8.348H8.348C3.738,512,0,508.262,0,503.652
	s3.738-8.348,8.348-8.348h495.304C508.262,495.304,512,499.042,512,503.652z"/>
</svg>